<mxfile host="app.diagrams.net" modified="2022-10-21T22:44:02.496Z" agent="5.0 (Windows NT 10.0; Win64; x64) AppleWebKit/537.36 (KHTML, like Gecko) Chrome/106.0.0.0 Safari/537.36" etag="N-avMu5DgYLHH8vksZC8" version="20.5.0" type="github">
  <diagram id="C5RBs43oDa-KdzZeNtuy" name="Page-1">
    <mxGraphModel dx="1038" dy="547" grid="1" gridSize="10" guides="1" tooltips="1" connect="1" arrows="1" fold="1" page="1" pageScale="1" pageWidth="827" pageHeight="1169" background="#114B5F" math="0" shadow="0">
      <root>
        <mxCell id="WIyWlLk6GJQsqaUBKTNV-0" />
        <mxCell id="WIyWlLk6GJQsqaUBKTNV-1" parent="WIyWlLk6GJQsqaUBKTNV-0" />
        <mxCell id="zbw_zS2QHWhwQ_B6BuTn-0" value="&lt;br&gt;Main Variables&lt;br&gt;Main Class" style="whiteSpace=wrap;html=1;aspect=fixed;fillColor=#F45B69;strokeColor=#028090;fontColor=#E4FDE1;" vertex="1" parent="WIyWlLk6GJQsqaUBKTNV-1">
          <mxGeometry x="70" y="310" width="110" height="110" as="geometry" />
        </mxCell>
        <mxCell id="zbw_zS2QHWhwQ_B6BuTn-1" value="" style="curved=1;endArrow=classic;html=1;rounded=0;strokeColor=#028090;fontColor=#E4FDE1;fillColor=#F45B69;labelBackgroundColor=#114B5F;" edge="1" parent="WIyWlLk6GJQsqaUBKTNV-1">
          <mxGeometry width="50" height="50" relative="1" as="geometry">
            <mxPoint x="110" y="310" as="sourcePoint" />
            <mxPoint x="210" y="250" as="targetPoint" />
            <Array as="points">
              <mxPoint x="160" y="310" />
              <mxPoint x="110" y="260" />
            </Array>
          </mxGeometry>
        </mxCell>
        <mxCell id="zbw_zS2QHWhwQ_B6BuTn-12" value="DataBase" style="shape=table;startSize=30;container=1;collapsible=1;childLayout=tableLayout;fixedRows=1;rowLines=0;fontStyle=1;align=center;resizeLast=1;strokeColor=#028090;fontColor=#E4FDE1;fillColor=#F45B69;" vertex="1" parent="WIyWlLk6GJQsqaUBKTNV-1">
          <mxGeometry x="390" y="10" width="160" height="150" as="geometry" />
        </mxCell>
        <mxCell id="zbw_zS2QHWhwQ_B6BuTn-13" value="" style="shape=tableRow;horizontal=0;startSize=0;swimlaneHead=0;swimlaneBody=0;fillColor=none;collapsible=0;dropTarget=0;points=[[0,0.5],[1,0.5]];portConstraint=eastwest;top=0;left=0;right=0;bottom=1;strokeColor=#028090;fontColor=#E4FDE1;" vertex="1" parent="zbw_zS2QHWhwQ_B6BuTn-12">
          <mxGeometry y="30" width="160" height="30" as="geometry" />
        </mxCell>
        <mxCell id="zbw_zS2QHWhwQ_B6BuTn-14" value="ID" style="shape=partialRectangle;connectable=0;fillColor=none;top=0;left=0;bottom=0;right=0;fontStyle=1;overflow=hidden;strokeColor=#028090;fontColor=#E4FDE1;" vertex="1" parent="zbw_zS2QHWhwQ_B6BuTn-13">
          <mxGeometry width="30" height="30" as="geometry">
            <mxRectangle width="30" height="30" as="alternateBounds" />
          </mxGeometry>
        </mxCell>
        <mxCell id="zbw_zS2QHWhwQ_B6BuTn-15" value="Cashier" style="shape=partialRectangle;connectable=0;fillColor=none;top=0;left=0;bottom=0;right=0;align=left;spacingLeft=6;fontStyle=5;overflow=hidden;strokeColor=#028090;fontColor=#E4FDE1;" vertex="1" parent="zbw_zS2QHWhwQ_B6BuTn-13">
          <mxGeometry x="30" width="130" height="30" as="geometry">
            <mxRectangle width="130" height="30" as="alternateBounds" />
          </mxGeometry>
        </mxCell>
        <mxCell id="zbw_zS2QHWhwQ_B6BuTn-16" value="" style="shape=tableRow;horizontal=0;startSize=0;swimlaneHead=0;swimlaneBody=0;fillColor=none;collapsible=0;dropTarget=0;points=[[0,0.5],[1,0.5]];portConstraint=eastwest;top=0;left=0;right=0;bottom=0;strokeColor=#028090;fontColor=#E4FDE1;" vertex="1" parent="zbw_zS2QHWhwQ_B6BuTn-12">
          <mxGeometry y="60" width="160" height="30" as="geometry" />
        </mxCell>
        <mxCell id="zbw_zS2QHWhwQ_B6BuTn-17" value="1" style="shape=partialRectangle;connectable=0;fillColor=none;top=0;left=0;bottom=0;right=0;editable=1;overflow=hidden;strokeColor=#028090;fontColor=#E4FDE1;" vertex="1" parent="zbw_zS2QHWhwQ_B6BuTn-16">
          <mxGeometry width="30" height="30" as="geometry">
            <mxRectangle width="30" height="30" as="alternateBounds" />
          </mxGeometry>
        </mxCell>
        <mxCell id="zbw_zS2QHWhwQ_B6BuTn-18" value="OnePerson" style="shape=partialRectangle;connectable=0;fillColor=none;top=0;left=0;bottom=0;right=0;align=left;spacingLeft=6;overflow=hidden;strokeColor=#028090;fontColor=#E4FDE1;" vertex="1" parent="zbw_zS2QHWhwQ_B6BuTn-16">
          <mxGeometry x="30" width="130" height="30" as="geometry">
            <mxRectangle width="130" height="30" as="alternateBounds" />
          </mxGeometry>
        </mxCell>
        <mxCell id="zbw_zS2QHWhwQ_B6BuTn-19" value="" style="shape=tableRow;horizontal=0;startSize=0;swimlaneHead=0;swimlaneBody=0;fillColor=none;collapsible=0;dropTarget=0;points=[[0,0.5],[1,0.5]];portConstraint=eastwest;top=0;left=0;right=0;bottom=0;strokeColor=#028090;fontColor=#E4FDE1;" vertex="1" parent="zbw_zS2QHWhwQ_B6BuTn-12">
          <mxGeometry y="90" width="160" height="30" as="geometry" />
        </mxCell>
        <mxCell id="zbw_zS2QHWhwQ_B6BuTn-20" value="2" style="shape=partialRectangle;connectable=0;fillColor=none;top=0;left=0;bottom=0;right=0;editable=1;overflow=hidden;strokeColor=#028090;fontColor=#E4FDE1;" vertex="1" parent="zbw_zS2QHWhwQ_B6BuTn-19">
          <mxGeometry width="30" height="30" as="geometry">
            <mxRectangle width="30" height="30" as="alternateBounds" />
          </mxGeometry>
        </mxCell>
        <mxCell id="zbw_zS2QHWhwQ_B6BuTn-21" value="TwoPerson" style="shape=partialRectangle;connectable=0;fillColor=none;top=0;left=0;bottom=0;right=0;align=left;spacingLeft=6;overflow=hidden;strokeColor=#028090;fontColor=#E4FDE1;" vertex="1" parent="zbw_zS2QHWhwQ_B6BuTn-19">
          <mxGeometry x="30" width="130" height="30" as="geometry">
            <mxRectangle width="130" height="30" as="alternateBounds" />
          </mxGeometry>
        </mxCell>
        <mxCell id="zbw_zS2QHWhwQ_B6BuTn-22" value="" style="shape=tableRow;horizontal=0;startSize=0;swimlaneHead=0;swimlaneBody=0;fillColor=none;collapsible=0;dropTarget=0;points=[[0,0.5],[1,0.5]];portConstraint=eastwest;top=0;left=0;right=0;bottom=0;strokeColor=#028090;fontColor=#E4FDE1;" vertex="1" parent="zbw_zS2QHWhwQ_B6BuTn-12">
          <mxGeometry y="120" width="160" height="30" as="geometry" />
        </mxCell>
        <mxCell id="zbw_zS2QHWhwQ_B6BuTn-23" value="3" style="shape=partialRectangle;connectable=0;fillColor=none;top=0;left=0;bottom=0;right=0;editable=1;overflow=hidden;strokeColor=#028090;fontColor=#E4FDE1;" vertex="1" parent="zbw_zS2QHWhwQ_B6BuTn-22">
          <mxGeometry width="30" height="30" as="geometry">
            <mxRectangle width="30" height="30" as="alternateBounds" />
          </mxGeometry>
        </mxCell>
        <mxCell id="zbw_zS2QHWhwQ_B6BuTn-24" value="ThreePerson" style="shape=partialRectangle;connectable=0;fillColor=none;top=0;left=0;bottom=0;right=0;align=left;spacingLeft=6;overflow=hidden;strokeColor=#028090;fontColor=#E4FDE1;" vertex="1" parent="zbw_zS2QHWhwQ_B6BuTn-22">
          <mxGeometry x="30" width="130" height="30" as="geometry">
            <mxRectangle width="130" height="30" as="alternateBounds" />
          </mxGeometry>
        </mxCell>
        <mxCell id="zbw_zS2QHWhwQ_B6BuTn-25" value="" style="curved=1;endArrow=classic;html=1;rounded=0;strokeColor=#028090;fontColor=#E4FDE1;fillColor=#F45B69;entryX=-0.025;entryY=0.172;entryDx=0;entryDy=0;entryPerimeter=0;labelBackgroundColor=#114B5F;" edge="1" parent="WIyWlLk6GJQsqaUBKTNV-1" target="zbw_zS2QHWhwQ_B6BuTn-12">
          <mxGeometry width="50" height="50" relative="1" as="geometry">
            <mxPoint x="250" y="160" as="sourcePoint" />
            <mxPoint x="300" y="110" as="targetPoint" />
            <Array as="points">
              <mxPoint x="300" y="160" />
              <mxPoint x="250" y="110" />
            </Array>
          </mxGeometry>
        </mxCell>
        <mxCell id="zbw_zS2QHWhwQ_B6BuTn-31" value="Class Menu" style="swimlane;strokeColor=#028090;fontColor=#E4FDE1;fillColor=#F45B69;" vertex="1" parent="WIyWlLk6GJQsqaUBKTNV-1">
          <mxGeometry x="210" y="160" width="130" height="140" as="geometry" />
        </mxCell>
        <mxCell id="zbw_zS2QHWhwQ_B6BuTn-32" value="String product&lt;br&gt;" style="text;html=1;align=center;verticalAlign=middle;resizable=0;points=[];autosize=1;strokeColor=none;fillColor=none;fontColor=#E4FDE1;" vertex="1" parent="zbw_zS2QHWhwQ_B6BuTn-31">
          <mxGeometry x="15" y="30" width="100" height="30" as="geometry" />
        </mxCell>
        <mxCell id="zbw_zS2QHWhwQ_B6BuTn-35" value="" style="shape=flexArrow;endArrow=classic;startArrow=classic;html=1;rounded=0;strokeColor=#028090;fontColor=#E4FDE1;fillColor=#F45B69;labelBackgroundColor=#114B5F;" edge="1" parent="WIyWlLk6GJQsqaUBKTNV-1">
          <mxGeometry width="100" height="100" relative="1" as="geometry">
            <mxPoint x="390" y="340" as="sourcePoint" />
            <mxPoint x="340" y="300" as="targetPoint" />
          </mxGeometry>
        </mxCell>
        <mxCell id="zbw_zS2QHWhwQ_B6BuTn-36" value="ProductList" style="swimlane;fontStyle=1;align=center;verticalAlign=middle;childLayout=stackLayout;horizontal=1;startSize=29;horizontalStack=0;resizeParent=1;resizeParentMax=0;resizeLast=0;collapsible=0;marginBottom=0;html=1;strokeColor=#028090;fontColor=#E4FDE1;fillColor=#F45B69;" vertex="1" parent="WIyWlLk6GJQsqaUBKTNV-1">
          <mxGeometry x="390" y="338" width="140" height="54" as="geometry" />
        </mxCell>
        <mxCell id="zbw_zS2QHWhwQ_B6BuTn-38" value="Class ProductList" style="text;html=1;strokeColor=none;fillColor=none;align=left;verticalAlign=middle;spacingLeft=4;spacingRight=4;overflow=hidden;rotatable=0;points=[[0,0.5],[1,0.5]];portConstraint=eastwest;fontColor=#E4FDE1;" vertex="1" parent="zbw_zS2QHWhwQ_B6BuTn-36">
          <mxGeometry y="29" width="140" height="25" as="geometry" />
        </mxCell>
        <mxCell id="zbw_zS2QHWhwQ_B6BuTn-39" value="" style="shape=flexArrow;endArrow=classic;startArrow=classic;html=1;rounded=0;strokeColor=#028090;fontColor=#E4FDE1;fillColor=#F45B69;entryX=0.994;entryY=1.184;entryDx=0;entryDy=0;entryPerimeter=0;exitX=0;exitY=0.25;exitDx=0;exitDy=0;width=12;endSize=1.32;" edge="1" parent="WIyWlLk6GJQsqaUBKTNV-1" source="zbw_zS2QHWhwQ_B6BuTn-40" target="zbw_zS2QHWhwQ_B6BuTn-38">
          <mxGeometry width="100" height="100" relative="1" as="geometry">
            <mxPoint x="590" y="420" as="sourcePoint" />
            <mxPoint x="630" y="380" as="targetPoint" />
          </mxGeometry>
        </mxCell>
        <mxCell id="zbw_zS2QHWhwQ_B6BuTn-40" value="Class ProductPrice" style="swimlane;fontStyle=1;align=center;verticalAlign=middle;childLayout=stackLayout;horizontal=1;startSize=29;horizontalStack=0;resizeParent=1;resizeParentMax=0;resizeLast=0;collapsible=0;marginBottom=0;html=1;strokeColor=#028090;fontColor=#E4FDE1;fillColor=#F45B69;" vertex="1" parent="WIyWlLk6GJQsqaUBKTNV-1">
          <mxGeometry x="590" y="420" width="140" height="54" as="geometry" />
        </mxCell>
        <mxCell id="zbw_zS2QHWhwQ_B6BuTn-43" style="edgeStyle=orthogonalEdgeStyle;rounded=0;orthogonalLoop=1;jettySize=auto;html=1;entryX=1;entryY=0.5;entryDx=0;entryDy=0;strokeColor=#028090;fontColor=#E4FDE1;fillColor=#F45B69;" edge="1" parent="WIyWlLk6GJQsqaUBKTNV-1" target="zbw_zS2QHWhwQ_B6BuTn-40">
          <mxGeometry relative="1" as="geometry">
            <mxPoint x="730" y="450" as="sourcePoint" />
          </mxGeometry>
        </mxCell>
        <mxCell id="zbw_zS2QHWhwQ_B6BuTn-44" style="edgeStyle=orthogonalEdgeStyle;rounded=0;orthogonalLoop=1;jettySize=auto;html=1;exitX=0;exitY=0;exitDx=0;exitDy=0;entryX=0;entryY=0.25;entryDx=0;entryDy=0;strokeColor=#028090;fontColor=#E4FDE1;fillColor=#F45B69;" edge="1" parent="WIyWlLk6GJQsqaUBKTNV-1" source="zbw_zS2QHWhwQ_B6BuTn-40" target="zbw_zS2QHWhwQ_B6BuTn-40">
          <mxGeometry relative="1" as="geometry" />
        </mxCell>
      </root>
    </mxGraphModel>
  </diagram>
</mxfile>
